<svg width="652px" height="282px" viewBox="0 0 652 282" version="1.1" xmlns="http://www.w3.org/2000/svg" xmlns:xlink="http://www.w3.org/1999/xlink">
    <g id="Page-1" stroke="none" stroke-width="1" fill="none" fill-rule="evenodd">
        <g id="Desktop-HD" transform="translate(-525.000000, 0.000000)">
            <g id="8-copy" transform="translate(805.619408, -157.380592) rotate(-300.000000) translate(-805.619408, 157.380592) translate(480.619408, -482.380592)">
                <polygon id="Path" fill="#655DC6" points="496.25 41.125 481.5 44.8125 382.3125 69.8125 325.375 84 269.125 98.125 285.6875 164.5625 297.375 211.5625 297.375 211.5625 325.4375 325 325.4375 325 375.4375 337.5 486.0625 365.0625 552.4375 381.625 582.1875 389 583 389 636.5625 402.3125 646.6875 404.8125 646.6875 3.625 646.6875 3.625"></polygon>
                <polygon id="Path" fill="#FFAD2C" points="583.0625 389.125 582.1875 388.9375 552.5 381.5625 486.125 365 375.5 337.4375 325.5 324.9375 325.4375 324.9375 353.6875 438.25 365.5 485.5625 382.0625 552 389.5625 582.0625 403.0625 636.0625 405.5625 646.1875 646.75 646.1875 646.75 646.1875 646.75 644.625 646.75 486 646.75 405 636.625 402.5"></polygon>
                <polygon id="Path" fill="#38C2E8" points="261.3125 67.8125 268.875 97.875 325.375 83.75 382.3125 69.5625 481.5 44.8125 496.25 41.125 646.625 3.625 486.9375 3.625 325.75 3.625 245.375 3.625 247.875 13.8125"></polygon>
                <path d="M389.5625,582.0625 L382.0625,552 L365.5,485.5625 L353.6875,438.1875 L325.4375,325 L275,312.5 L164.8125,285 L98,268.375 L68.75,260.875 C69.1875,263.25 69.6875,265.5625 70.3125,267.9375 L98.625,381.5625 L126.875,494.8125 C128.936127,503.067441 131.891084,511.073071 135.6875,518.6875 L132.625,517.9375 L151.6875,594.25 L155.25,608.5625 L164.625,646.0625 L405.75,646.0625 L403.25,635.9375 L389.5625,582.0625 Z" id="Path" fill="#FF7937"></path>
            </g>
        </g>
    </g>
</svg>
