<?xml version="1.0" encoding="UTF-8"?>
<svg width="437px" height="437px" viewBox="0 0 437 437" version="1.1" xmlns="http://www.w3.org/2000/svg" xmlns:xlink="http://www.w3.org/1999/xlink">
    <!-- Generator: Sketch 52.2 (67145) - http://www.bohemiancoding.com/sketch -->
    <title>8</title>
    <desc>Created with Sketch.</desc>
    <g id="Page-1" stroke="none" stroke-width="1" fill="none" fill-rule="evenodd">
        <g id="Desktop-HD" transform="translate(0.000000, -587.000000)">
            <g id="8" transform="translate(-0.380592, 1041.619408) rotate(-315.000000) translate(0.380592, -1041.619408) translate(-325.380592, 716.619408)">
                <polygon id="Path" fill="#655DC6" points="496.25 41.125 481.5 44.8125 382.3125 69.8125 325.375 84 269.125 98.125 285.6875 164.5625 297.375 211.5625 297.375 211.5625 325.4375 325 325.4375 325 375.4375 337.5 486.0625 365.0625 552.4375 381.625 582.1875 389 583 389 636.5625 402.3125 646.6875 404.8125 646.6875 3.625 646.6875 3.625"></polygon>
                <polygon id="Path" fill="#38C2E8" points="261.3125 67.8125 268.875 97.875 325.375 83.75 382.3125 69.5625 481.5 44.8125 496.25 41.125 646.625 3.625 486.9375 3.625 325.75 3.625 245.375 3.625 247.875 13.8125"></polygon>
                <path d="M389.5625,582.0625 L382.0625,552 L365.5,485.5625 L353.6875,438.1875 L325.4375,325 L275,312.5 L164.8125,285 L98,268.375 L68.75,260.875 C69.1875,263.25 69.6875,265.5625 70.3125,267.9375 L98.625,381.5625 L126.875,494.8125 C128.936127,503.067441 131.891084,511.073071 135.6875,518.6875 L132.625,517.9375 L151.6875,594.25 L155.25,608.5625 L164.625,646.0625 L405.75,646.0625 L403.25,635.9375 L389.5625,582.0625 Z" id="Path" fill="#FF7937"></path>
                <polygon id="Path" fill="#FF7937" points="56.1875 150.875 155.25 126.1875 268.875 97.875 261.3125 67.8125 247.875 13.8125 245.375 3.625 4.1875 3.625 41.8125 154.4375"></polygon>
                <polygon id="Path" fill="#FFAD2C" points="56.1875 150.875 41.8125 154.4375 45.375 168.875 68.3125 260.8125 68.5625 260.875 98.0625 268.25 164.875 284.875 275.0625 312.375 325.4375 324.9375 297.1875 211.3125 297.125 211.3125 285.4375 164.3125 268.875 97.875 155.25 126.1875"></polygon>
                <polygon id="Path" fill="#38C2E8" points="4.1875 3.625 4.1875 163.8125 41.8125 154.4375"></polygon>
            </g>
        </g>
    </g>
</svg>