<?xml version="1.0" encoding="UTF-8"?>
<svg width="54px" height="54px" viewBox="0 0 54 54" version="1.1" xmlns="http://www.w3.org/2000/svg" xmlns:xlink="http://www.w3.org/1999/xlink">
    <!-- Generator: Sketch 52.2 (67145) - http://www.bohemiancoding.com/sketch -->
    <title>Cartoon</title>
    <desc>Created with Sketch.</desc>
    <g id="Page-1" stroke="none" stroke-width="1" fill="none" fill-rule="evenodd">
        <g id="Desktop-HD" transform="translate(-1139.000000, -489.000000)">
            <g id="Cartoon" transform="translate(1139.000000, 489.000000)">
                <path d="M37.5692188,9.04899509e-14 L15.9430393,9.04899509e-14 C7.14157915,0.00877514124 0.00877514124,7.14157915 0,15.9430393 L0,37.5731986 C0.00877514124,46.3746587 7.14157915,53.5074627 15.9430393,53.5162379 L37.5692188,53.5162379 C46.3706789,53.5074627 53.5034829,46.3746587 53.5122581,37.5731986 L53.5122581,15.9430393 C53.5034829,7.14157915 46.3706789,0.00877514124 37.5692188,0 Z" id="Path" fill="#655DC6"></path>
                <g id="Group-2" transform="translate(10.000000, 8.000000)">
                    <ellipse id="Oval" fill="#D18669" cx="26.8648649" cy="21.5727273" rx="1.45045045" ry="1.46363636"></ellipse>
                    <path d="M16.1756757,10.4363636 C16.1756757,11.2636364 15.5135135,11.9 14.7252252,11.9 C13.9054054,11.9 13.2747748,11.2318182 13.2747748,10.4363636 L16.1756757,10.4363636 Z" id="Path" fill="#D18669"></path>
                    <path d="M21.2837838,14.5409091 C20.1486486,14.4136364 19.045045,14.6363636 18.1306306,15.1454545 C18.1306306,15.1454545 18.1306306,15.1136364 18.1306306,15.1136364 C17.3423423,15.6227273 16.3963964,15.8772727 15.3558559,15.6863636 C13.8108108,15.4318182 12.5495495,14.2863636 12.1711712,12.7590909 C11.981982,11.9318182 12.045045,11.1363636 12.2972973,10.4363636 L10.2162162,10.4363636 L10.2162162,25.5818182 L11.3513514,31.4681818 C11.4144144,31.8181818 11.1621622,32.1681818 10.7837838,32.1681818 C10.4684685,32.1681818 10.2162162,32.4227273 10.2162162,32.7409091 L10.2162162,33.7590909 L12.2972973,33.7590909 L12.2972973,28.1909091 C12.2972973,28.1909091 15.2297297,26.2818182 16.3963964,23.6090909 C17.4054054,24.8818182 18.9504505,25.6772727 20.6846847,25.6772727 L24.1216216,25.6772727 L23.7117117,31.3727273 C23.6801802,31.8181818 23.3333333,32.1363636 22.8918919,32.1363636 C22.4504505,32.1363636 22.0720721,32.5181818 22.0720721,32.9636364 L22.0720721,33.7272727 L24.2477477,33.7272727 L26.2027027,25.6772727 L26.2027027,20.2363636 C26.2027027,17.3727273 24.1216216,14.8590909 21.2837838,14.5409091 Z" id="Path" fill="#FFA400"></path>
                    <path d="M6.59009009,15.6863636 L12.2972973,10.4363636 L4.19369369,10.4363636 C2.45945946,10.4363636 1.04054054,11.8681818 1.04054054,13.6181818 C1.04054054,15.3681818 2.45945946,16.4818182 4.19369369,16.4818182 C4.85585586,16.4818182 5.48648649,16.5772727 6.02252252,16.2272727 C6.24324324,16.0681818 6.43243243,15.8772727 6.59009009,15.6863636 Z" id="Path" fill="#38C2E8"></path>
                    <path d="M1.48198198,12.0272727 C1.1981982,12.5045455 1.04054054,13.0454545 1.04054054,13.6181818 C1.04054054,15.3045455 2.33333333,16.6727273 4.0045045,16.8 C4.28828829,16.3227273 4.44594595,15.7818182 4.44594595,15.2090909 C4.41441441,13.4909091 3.12162162,12.1227273 1.48198198,12.0272727 Z" id="Path" fill="#FFFFFF"></path>
                    <ellipse id="Oval" fill="#FFFFFF" cx="6.71621622" cy="11.9954545" rx="1" ry="1"></ellipse>
                    <g id="Group" transform="translate(0.000000, 0.000000)">
                        <path d="M10.2162162,26.5363636 C10.6261261,26.5363636 11.0045045,26.25 11.1306306,25.8363636 C11.2882883,25.3272727 11.0045045,24.7863636 10.5,24.6590909 C8.22972973,23.9909091 6.62162162,21.8590909 6.62162162,19.4727273 C6.62162162,18.9318182 6.21171171,18.5181818 5.67567568,18.5181818 C5.13963964,18.5181818 4.72972973,18.9318182 4.72972973,19.4727273 C4.72972973,22.6863636 6.87387387,25.5818182 9.93243243,26.5045455 C10.027027,26.5045455 10.1216216,26.5363636 10.2162162,26.5363636 Z" id="Path" fill="#38C2E8"></path>
                        <path d="M12.4864865,3.37272727 C11.9504505,3.37272727 11.5405405,3.78636364 11.5405405,4.32727273 C11.5405405,5.56818182 10.5630631,6.55454545 9.33333333,6.55454545 L6.18018018,6.55454545 C5.64414414,6.55454545 5.23423423,6.96818182 5.23423423,7.50909091 C5.23423423,8.05 5.64414414,8.46363636 6.18018018,8.46363636 L12.4864865,8.46363636 C16.490991,8.46363636 19.7387387,5.18636364 19.7387387,1.14545455 C19.7387387,0.604545455 19.3288288,0.190909091 18.7927928,0.190909091 C18.2567568,0.190909091 17.8468468,0.604545455 17.8468468,1.14545455 C17.8468468,2.76818182 17.1531532,4.2 16.018018,5.18636364 C16.3648649,4.45454545 16.5855856,3.59545455 16.5855856,2.73636364 C16.5855856,2.19545455 16.1756757,1.78181818 15.6396396,1.78181818 C15.1036036,1.78181818 14.6936937,2.19545455 14.6936937,2.73636364 C14.6936937,3.97727273 14.0945946,5.09090909 13.1486486,5.79090909 C13.3378378,5.34545455 13.4324324,4.83636364 13.4324324,4.32727273 C13.4324324,3.81818182 13.0225225,3.37272727 12.4864865,3.37272727 Z" id="Path" fill="#FF671D"></path>
                        <path d="M30.5855856,32.7727273 L25.4459459,32.7727273 L27.1171171,25.9 L27.1171171,25.8681818 C27.1171171,25.8363636 27.1171171,25.8045455 27.1171171,25.7727273 C27.1171171,25.7409091 27.1171171,25.7409091 27.1171171,25.7090909 L27.1171171,21.1272727 C27.2432432,21.2227273 27.3378378,21.3818182 27.3378378,21.5727273 C27.3378378,22.1136364 27.7477477,22.5272727 28.2837838,22.5272727 C28.8198198,22.5272727 29.2297297,22.1136364 29.2297297,21.5727273 C29.2297297,20.3 28.2522523,19.25 27.0540541,19.1545455 C26.6126126,16.0045455 23.9009009,13.5545455 20.6531532,13.5545455 C19.454955,13.5545455 18.4459459,13.9681818 17.5315315,14.3181818 C16.9324324,14.5727273 16.3648649,14.7954545 15.954955,14.7954545 C14.3153153,14.7954545 12.9594595,13.4272727 12.9594595,11.7727273 C12.9594595,11.6454545 12.9594595,11.5181818 12.990991,11.3590909 L15.5135135,11.3590909 C16.0495495,11.3590909 16.4594595,10.9454545 16.4594595,10.4045455 C16.4594595,9.86363636 16.0495495,9.45 15.5135135,9.45 L4.16216216,9.45 C1.89189189,9.45 0.0630630631,11.2954545 0.0630630631,13.5863636 C0.0630630631,14.4136364 0.315315315,15.2090909 0.756756757,15.9090909 C1.07207207,16.3545455 1.45045045,16.7363636 1.89189189,17.0545455 C2.33333333,17.3409091 2.9009009,17.2136364 3.21621622,16.8 C3.21621622,16.8 3.21621622,16.8 3.21621622,16.8 C3.21621622,16.8 3.21621622,16.8 3.21621622,16.8 C3.21621622,17.3409091 3.62612613,17.7545455 4.16216216,17.7545455 C5.01351351,17.7545455 5.83333333,17.5 6.52702703,16.9909091 C6.55855856,16.9590909 6.59009009,16.9590909 6.59009009,16.9272727 L6.90540541,16.6727273 C7.66216216,16.0045455 9.52252252,14.2863636 11.1936937,12.7272727 C11.6351351,15.0181818 13.6216216,16.7045455 15.9864865,16.7045455 C16.7747748,16.7045455 17.5,16.4181818 18.2567568,16.1 C19.0135135,15.7818182 19.8333333,15.4636364 20.6531532,15.4636364 C23.0810811,15.4636364 25.0675676,17.3727273 25.2252252,19.7590909 L25.2567568,25.55 L23.490991,32.7727273 L13.2432432,32.7727273 L13.2432432,28.7 C14,28.1272727 15.545045,26.8863636 16.6171171,25.2 C17.7522523,26.1227273 19.2027027,26.6636364 20.6846847,26.6636364 L24.1216216,26.6636364 C24.6576577,26.6636364 25.0675676,26.25 25.0675676,25.7090909 C25.0675676,25.1681818 24.6576577,24.7545455 24.1216216,24.7545455 L20.6846847,24.7545455 C19.2972973,24.7545455 18.0045045,24.1181818 17.1216216,23.0363636 C16.9009009,22.7818182 16.5855856,22.6545455 16.2702703,22.6863636 C15.954955,22.7181818 15.6711712,22.9409091 15.545045,23.2590909 C14.5045045,25.5818182 11.8243243,27.3636364 11.7927928,27.3954545 C11.509009,27.5863636 11.3513514,27.8727273 11.3513514,28.1909091 L11.3513514,32.7727273 L10.2162162,32.7727273 C9.68018018,32.7727273 9.27027027,33.1863636 9.27027027,33.7272727 C9.27027027,34.2681818 9.68018018,34.6818182 10.2162162,34.6818182 L30.5855856,34.6818182 C31.1216216,34.6818182 31.5315315,34.2681818 31.5315315,33.7272727 C31.5315315,33.1863636 31.1216216,32.7727273 30.5855856,32.7727273 Z M3.40540541,16.2590909 C3.40540541,15.9409091 3.24774775,15.6545455 2.9954955,15.4636364 C2.74324324,15.3045455 2.55405405,15.0818182 2.36486486,14.8590909 C2.11261261,14.4772727 1.98648649,14.0636364 1.98648649,13.6181818 C1.98648649,12.3772727 2.96396396,11.3909091 4.19369369,11.3909091 L9.86936937,11.3909091 C7.31531532,13.7454545 5.61261261,15.3363636 5.48648649,15.4318182 C5.10810811,15.6863636 4.66666667,15.8454545 4.22522523,15.8454545 C3.87837838,15.8454545 3.59459459,16.0045455 3.40540541,16.2590909 Z" id="Shape" fill="#FFA400" fill-rule="nonzero"></path>
                        <path d="M33.5495495,32.8045455 C33.4864865,32.8045455 33.454955,32.8363636 33.3918919,32.8681818 C33.3288288,32.9 33.2972973,32.9318182 33.2342342,32.9636364 C33.1711712,32.9954545 33.1081081,33.0590909 33.0765766,33.0909091 C32.8873874,33.2818182 32.7927928,33.5045455 32.7927928,33.7590909 C32.7927928,33.8227273 32.7927928,33.8863636 32.8243243,33.9181818 C32.8243243,33.9818182 32.8558559,34.0454545 32.8873874,34.1090909 C32.9189189,34.1727273 32.9504505,34.2363636 32.981982,34.2681818 C33.0135135,34.3318182 33.045045,34.3636364 33.1081081,34.4272727 C33.1396396,34.4590909 33.2027027,34.5227273 33.2657658,34.5545455 C33.3288288,34.5863636 33.3603604,34.6181818 33.4234234,34.65 C33.4864865,34.6818182 33.5495495,34.6818182 33.5810811,34.7136364 C33.6441441,34.7136364 33.7072072,34.7454545 33.7702703,34.7454545 C34.0225225,34.7454545 34.2747748,34.65 34.4324324,34.4590909 C34.463964,34.4272727 34.527027,34.3636364 34.5585586,34.3 C34.5900901,34.2363636 34.6216216,34.2045455 34.6531532,34.1409091 C34.6846847,34.0772727 34.6846847,34.0136364 34.6846847,33.9818182 C34.6846847,33.9181818 34.7162162,33.8545455 34.7162162,33.7909091 C34.7162162,33.5363636 34.6216216,33.2818182 34.4324324,33.1227273 C34.1801802,32.8363636 33.8648649,32.7409091 33.5495495,32.8045455 Z" id="Path" fill="#38C2E8"></path>
                    </g>
                </g>
            </g>
        </g>
    </g>
</svg>