<?xml version="1.0" encoding="UTF-8"?>
<svg width="54px" height="55px" viewBox="0 0 54 55" version="1.1" xmlns="http://www.w3.org/2000/svg" xmlns:xlink="http://www.w3.org/1999/xlink">
    <!-- Generator: Sketch 52.2 (67145) - http://www.bohemiancoding.com/sketch -->
    <title>insta</title>
    <desc>Created with Sketch.</desc>
    <g id="Page-1" stroke="none" stroke-width="1" fill="none" fill-rule="evenodd">
        <g id="Desktop-HD" transform="translate(-1078.000000, -362.000000)">
            <g id="social-icons" transform="translate(954.000000, 362.000000)">
                <g id="insta" transform="translate(124.000000, 0.000000)">
                    <path d="M37.5692188,0.619945589 L15.9430393,0.619945589 C7.14157915,0.62872073 0.00877514124,7.76152474 0,16.5629848 L0,38.177225 C-4.38190234e-06,46.9849013 7.13536736,54.1273977 15.9430393,54.1361834 L37.5692188,54.1361834 C46.3768907,54.1273977 53.5122624,46.9849013 53.5122581,38.177225 L53.5122581,16.5629848 C53.5034829,7.76152474 46.3706789,0.62872073 37.5692188,0.619945589 Z" id="Path" fill="#655DC6"></path>
                    <path d="M48.127602,38.177225 C48.1318282,40.9802395 47.0212963,43.6698971 45.0407571,45.6534224 C43.0602179,47.6369477 40.3722365,48.7515306 37.5692188,48.7515274 L15.9430393,48.7515274 C13.1400216,48.7515306 10.4520402,47.6369477 8.47150097,45.6534224 C6.49096178,43.6698971 5.38042986,40.9802395 5.38465604,38.177225 L5.38465604,16.5629848 C5.38465604,10.7317508 10.1118052,6.00460163 15.9430393,6.00460163 L37.5692188,6.00460163 C43.4004528,6.00460163 48.127602,10.7317508 48.127602,16.5629848 L48.127602,38.177225 Z" id="Path" fill="#655DC6"></path>
                    <path d="M26.756129,13.5383443 C21.1569559,13.5367347 16.1082931,16.908569 13.9648387,22.0812226 C11.8213843,27.2538762 13.0053693,33.2084074 16.9645828,37.1676209 C20.9237962,41.1268343 26.8783274,42.3108194 32.050981,40.1673649 C37.2236347,38.0239105 40.595469,32.9752478 40.5938593,27.3760746 C40.5850867,19.7373439 34.3948598,13.5471169 26.756129,13.5383443 Z" id="Path" fill="#FFA400"></path>
                    <circle id="Oval" fill="#FF671D" cx="40.6217178" cy="13.6418189" r="3.31516518"></circle>
                    <circle id="Oval" fill="#655DC6" cx="26.756129" cy="27.3760746" r="8.45705402"></circle>
                </g>
            </g>
        </g>
    </g>
</svg>