<?xml version="1.0" encoding="UTF-8"?>
<svg width="54px" height="54px" viewBox="0 0 54 54" version="1.1" xmlns="http://www.w3.org/2000/svg" xmlns:xlink="http://www.w3.org/1999/xlink">
    <!-- Generator: Sketch 52.2 (67145) - http://www.bohemiancoding.com/sketch -->
    <title>Smart Apps</title>
    <desc>Created with Sketch.</desc>
    <g id="Page-1" stroke="none" stroke-width="1" fill="none" fill-rule="evenodd">
        <g id="Desktop-HD" transform="translate(-954.000000, -489.000000)">
            <g id="Smart-Apps" transform="translate(954.000000, 489.000000)">
                <path d="M37.8716829,53.7510455 L15.8793626,53.7510455 C11.6678938,53.7510455 7.62891578,52.078046 4.65095763,49.1000878 C1.67299947,46.1221297 5.08122283e-16,42.0831517 0,37.8716829 L0,15.8793626 C-1.08252139e-15,7.1094328 7.1094328,1.61100997e-15 15.8793626,0 L37.8716829,0 C46.6416127,5.37003323e-16 53.7510455,7.1094328 53.7510455,15.8793626 L53.7510455,37.8716829 C53.7510455,46.6416127 46.6416127,53.7510455 37.8716829,53.7510455 Z" id="Path" fill="#655DC6"></path>
                <g id="assets" transform="translate(17.000000, 9.000000)">
                    <path d="M16.875,27.6818182 L3.125,27.6818182 C1.40625,27.6818182 -1.77635684e-15,26.25 -1.77635684e-15,24.5 L-1.77635684e-15,10.5 C-1.77635684e-15,8.75 1.40625,7.31818182 3.125,7.31818182 L16.875,7.31818182 C18.59375,7.31818182 20,8.75 20,10.5 L20,24.5 C20,26.25 18.59375,27.6818182 16.875,27.6818182 Z" id="Path" fill="#FFFFFF"></path>
                    <path d="M11.375,14.9863636 C10.8125,14.9863636 10.3125,15.2409091 10,15.6545455 C9.6875,15.2409091 9.1875,14.9863636 8.625,14.9863636 C7.65625,14.9863636 6.875,15.7818182 6.875,16.7681818 C6.875,17.7545455 7.40625,18.6136364 7.90625,19.1227273 C8.3125,19.5363636 8.90625,20.1409091 10,20.6818182 C11.09375,20.1409091 11.6875,19.5363636 12.09375,19.1227273 C12.59375,18.6136364 13.125,17.7545455 13.125,16.7681818 C13.125,15.7818182 12.34375,14.9863636 11.375,14.9863636 Z" id="Path" fill="#FF671D"></path>
                    <path d="M14.375,0.318181818 L5.625,0.318181818 C4.8125,0.318181818 4.15625,0.922727273 4.0625,1.75 L3.75,4.77272727 C3.65625,5.79090909 3.125,6.71363636 2.34375,7.31818182 L17.65625,7.31818182 C16.84375,6.71363636 16.34375,5.79090909 16.25,4.77272727 L15.9375,1.71818182 C15.84375,0.922727273 15.1875,0.318181818 14.375,0.318181818 Z" id="Path" fill="#38C2E8"></path>
                    <path d="M5.625,6.68181818 C5.875,4.13636364 8,2.22727273 10.5,2.22727273 L15.96875,2.22727273 L15.9375,1.75 C15.84375,0.954545455 15.1875,0.318181818 14.375,0.318181818 L5.625,0.318181818 C4.8125,0.318181818 4.15625,0.922727273 4.0625,1.75 L3.75,4.77272727 C3.65625,5.79090909 3.125,6.71363636 2.34375,7.31818182 L5.5,7.31818182 C5.5625,7.12727273 5.625,6.90454545 5.625,6.68181818 Z" id="Path" fill="#FFFFFF"></path>
                    <path d="M17.65625,7.31818182 C16.84375,6.71363636 16.34375,5.79090909 16.25,4.77272727 L15.9375,1.71818182 C15.84375,0.922727273 15.1875,0.286363636 14.375,0.286363636 L5.625,0.286363636 C4.8125,0.286363636 4.15625,0.890909091 4.0625,1.71818182 L3.75,4.77272727 C3.65625,5.79090909 3.125,6.71363636 2.34375,7.31818182" id="Path" stroke="#FFA400" stroke-width="1.89" stroke-linecap="round" stroke-linejoin="round"></path>
                    <path d="M14.375,34.6818182 L5.625,34.6818182 C4.8125,34.6818182 4.15625,34.0772727 4.0625,33.25 L3.75,30.1954545 C3.65625,29.1772727 3.125,28.2545455 2.34375,27.65 L17.65625,27.65 C16.84375,28.2545455 16.34375,29.1772727 16.25,30.1954545 L15.9375,33.25 C15.84375,34.0772727 15.1875,34.6818182 14.375,34.6818182 Z" id="Path" fill="#38C2E8"></path>
                    <path d="M14.375,34.6818182 L5.625,34.6818182 C4.8125,34.6818182 4.15625,34.0772727 4.0625,33.25 L3.75,30.1954545 C3.65625,29.1772727 3.125,28.2545455 2.34375,27.65 L17.65625,27.65 C16.84375,28.2545455 16.34375,29.1772727 16.25,30.1954545 L15.9375,33.25 C15.84375,34.0772727 15.1875,34.6818182 14.375,34.6818182 Z" id="Path" stroke="#FFA400" stroke-width="1.89" stroke-linecap="round" stroke-linejoin="round"></path>
                    <path d="M16.875,27.6818182 L3.125,27.6818182 C1.40625,27.6818182 -1.77635684e-15,26.25 -1.77635684e-15,24.5 L-1.77635684e-15,10.5 C-1.77635684e-15,8.75 1.40625,7.31818182 3.125,7.31818182 L16.875,7.31818182 C18.59375,7.31818182 20,8.75 20,10.5 L20,24.5 C20,26.25 18.59375,27.6818182 16.875,27.6818182 Z" id="Path" stroke="#FFA400" stroke-width="1.89" stroke-linecap="round" stroke-linejoin="round"></path>
                </g>
            </g>
        </g>
    </g>
</svg>