<?xml version="1.0" encoding="UTF-8"?>
<svg width="55px" height="54px" viewBox="0 0 55 54" version="1.1" xmlns="http://www.w3.org/2000/svg" xmlns:xlink="http://www.w3.org/1999/xlink">
    <!-- Generator: Sketch 52.2 (67145) - http://www.bohemiancoding.com/sketch -->
    <title>twitter</title>
    <desc>Created with Sketch.</desc>
    <g id="Page-1" stroke="none" stroke-width="1" fill="none" fill-rule="evenodd">
        <g id="Desktop-HD" transform="translate(-1015.000000, -362.000000)">
            <g id="social-icons" transform="translate(954.000000, 362.000000)">
                <g id="twitter" transform="translate(61.000000, 0.000000)">
                    <path d="M38.3015002,53.8635834 L16.3171395,53.8635834 C7.54720972,53.8635834 0.437776914,46.7541506 0.437776914,37.9842208 L0.437776914,15.9759813 C0.437776914,7.20605154 7.54720972,0.096618733 16.3171395,0.096618733 L38.3015002,0.096618733 C47.07143,0.096618733 54.1808628,7.20605154 54.1808628,15.9759813 L54.1808628,37.9683016 C54.1850876,42.1825279 52.5139534,46.2255968 49.5355372,49.2069989 C46.557121,52.1884009 42.5157286,53.8635855 38.3015002,53.8635834 Z" id="Path" fill="#655DC6"></path>
                    <path d="M43.0255111,17.2256354 C41.8492823,17.7473453 40.601828,18.0907305 39.3243063,18.2444617 C40.6715979,17.4322809 41.6795067,16.1600258 42.1618966,14.6626506 C40.8915183,15.4132822 39.5026336,15.9421889 38.0547532,16.2267081 C36.3037835,14.3517407 33.6078091,13.6932842 31.1896616,14.5499993 C28.7715141,15.4067144 27.0913846,17.615562 26.9113408,20.1746599 C26.9113408,20.3298717 26.9113408,20.4850836 26.9113408,20.6402954 C26.9111515,20.8636481 26.9231085,21.0868459 26.947159,21.3089001 C26.9734267,21.5686693 27.0159613,21.8265353 27.0745122,22.0809794 C27.0725797,22.090165 27.0725797,22.0996523 27.0745122,22.1088379 C21.8886706,21.8495731 17.0568559,19.4003928 13.7820132,15.3710532 C12.0663707,18.3142112 12.9382695,22.0843018 15.7719083,23.9753595 C14.7497081,23.9481197 13.7491019,23.675103 12.8547221,23.1794015 L12.8547221,23.2550175 C12.8553873,26.3269631 15.018261,28.9739878 18.0284493,29.5868636 C17.0770853,29.8363907 16.0824044,29.8730797 15.1152429,29.6943179 C15.9618944,32.3183482 18.3799824,34.1163317 21.1366654,34.1715818 L20.7983832,34.4223086 C20.0240262,34.9935727 19.1867957,35.4742792 18.3030548,35.855033 L18.2115196,35.8948309 C16.6056081,36.5773415 14.8782335,36.9279607 13.1333074,36.9255966 C12.619968,36.9265322 12.1070173,36.8972967 11.5971084,36.8380412 C11.776199,36.9534551 11.9552895,37.068869 12.1383599,37.1763234 C14.9684987,38.856062 18.1997903,39.7401984 21.4908667,39.7353284 C33.3466615,39.7353284 39.8337194,29.9171862 39.8337194,21.4004353 L39.8337194,20.5646794 C41.0885857,19.6512851 42.1696038,18.5203946 43.0255111,17.2256354 Z" id="Path" fill="#FFA400"></path>
                    <path d="M27.0625729,22.1207773 L27.0625729,22.2720093 C27.066332,26.9530827 24.8665782,31.3629109 21.124726,34.1755616 C18.3754219,34.1119294 15.9674601,32.3155388 15.1232025,29.6982977 C16.090364,29.8770595 17.0850449,29.8403705 18.0364089,29.5908434 C15.0262205,28.9779676 12.8633468,26.3309429 12.8626817,23.2589973 L12.8626817,23.1833813 C13.7570615,23.6790828 14.7576677,23.9520995 15.7798679,23.9793393 C12.9462291,22.0882815 12.0743303,18.318191 13.7899728,15.375033 C17.0587632,19.40234 21.8825133,21.8539911 27.0625729,22.1207773 Z" id="Path" fill="#38C2E8"></path>
                </g>
            </g>
        </g>
    </g>
</svg>