<?xml version="1.0" encoding="UTF-8"?>
<svg width="54px" height="54px" viewBox="0 0 54 54" version="1.1" xmlns="http://www.w3.org/2000/svg" xmlns:xlink="http://www.w3.org/1999/xlink">
    <!-- Generator: Sketch 52.2 (67145) - http://www.bohemiancoding.com/sketch -->
    <title>VR/AR</title>
    <desc>Created with Sketch.</desc>
    <g id="Page-1" stroke="none" stroke-width="1" fill="none" fill-rule="evenodd">
        <g id="Desktop-HD" transform="translate(-1078.000000, -489.000000)">
            <g id="VR/AR" transform="translate(1078.000000, 489.000000)">
                <path d="M37.8637233,53.7669646 L15.8793626,53.7669646 C7.1094328,53.7669646 1.06042911e-15,46.6575318 0,37.887602 L0,15.8793626 C3.22547188e-14,7.1094328 7.1094328,0 15.8793626,0 L37.8637233,0 C46.6336531,9.04899509e-14 53.7430859,7.1094328 53.7430859,15.8793626 L53.7430859,37.8716829 C53.7473107,42.0859092 52.0761765,46.1289781 49.0977603,49.1103801 C46.1193441,52.0917822 42.0779517,53.7669668 37.8637233,53.7669646 Z" id="Path-Copy" fill="#655DC6"></path>
                <g id="Group-3" transform="translate(9.000000, 13.000000)" fill-rule="nonzero">
                    <path d="M3.5,5.25 C1.56542925,5.25 7.10542736e-15,6.81542925 7.10542736e-15,8.75 L7.10542736e-15,24.5 C7.10542736e-15,26.4345707 1.56542925,28 3.5,28 L12.0859375,28 C12.8310543,28 13.4804688,27.5556645 13.7265625,26.8515625 L15.1484375,22.640625 C15.4902353,21.6494145 16.454102,21 17.5,21 C18.545898,21 19.5097665,21.6494145 19.8515625,22.640625 L21.2734375,26.8515625 C21.5195313,27.5556645 22.1689458,28 22.9140625,28 L31.5,28 C33.4345707,28 35,26.4345707 35,24.5 L35,8.75 C35,6.81542925 33.4345707,5.25 31.5,5.25 L3.5,5.25 Z" id="Shape" fill="#38C2E8"></path>
                    <path d="M7.875,12.25 C10.2949227,12.25 12.25,14.205079 12.25,16.625 C12.25,19.0449227 10.2949227,21 7.875,21 C5.455079,21 3.5,19.0449227 3.5,16.625 C3.5,14.205079 5.455079,12.25 7.875,12.25 Z" id="Path" fill="#FFFFFF"></path>
                    <path d="M27.125,12.25 C29.5449227,12.25 31.5,14.205079 31.5,16.625 C31.5,19.0449227 29.5449227,21 27.125,21 C24.705079,21 22.75,19.0449227 22.75,16.625 C22.75,14.205079 24.705079,12.25 27.125,12.25 Z" id="Path" fill="#FFFFFF"></path>
                    <path d="M17.5,22.8046875 C17.2128915,22.8046875 16.9462895,22.955079 16.84375,23.2421875 L15.75,26.25 L19.25,26.25 L18.15625,23.2421875 C18.0537105,22.955079 17.7871103,22.8046875 17.5,22.8046875 Z" id="Path" fill="#FF671D"></path>
                    <path d="M7,6.66133815e-16 C5.06542925,6.66133815e-16 3.5,1.56542925 3.5,3.5 L31.5,3.5 C31.5,1.56542925 29.9345707,6.66133815e-16 28,6.66133815e-16 L7,6.66133815e-16 Z" id="Path" fill="#FFA400"></path>
                </g>
            </g>
        </g>
    </g>
</svg>