<?xml version="1.0" encoding="UTF-8"?>
<svg width="54px" height="54px" viewBox="0 0 54 54" version="1.1" xmlns="http://www.w3.org/2000/svg" xmlns:xlink="http://www.w3.org/1999/xlink">
    <!-- Generator: Sketch 52.2 (67145) - http://www.bohemiancoding.com/sketch -->
    <title>Web Applications</title>
    <desc>Created with Sketch.</desc>
    <g id="Page-1" stroke="none" stroke-width="1" fill="none" fill-rule="evenodd">
        <g id="Desktop-HD" transform="translate(-1015.000000, -489.000000)">
            <g id="Web-Applications" transform="translate(1015.000000, 489.000000)">
                <path d="M37.8637233,53.7669646 L15.8793626,53.7669646 C7.1094328,53.7669646 1.06042911e-15,46.6575318 0,37.887602 L0,15.8793626 C3.22547188e-14,7.1094328 7.1094328,0 15.8793626,0 L37.8637233,0 C46.6336531,9.04899509e-14 53.7430859,7.1094328 53.7430859,15.8793626 L53.7430859,37.8716829 C53.7473107,42.0859092 52.0761765,46.1289781 49.0977603,49.1103801 C46.1193441,52.0917822 42.0779517,53.7669668 37.8637233,53.7669646 Z" id="Path" fill="#655DC6"></path>
                <g id="Group-4" transform="translate(10.000000, 13.000000)">
                    <path d="M29.2769231,27.0857143 L3.44102564,27.0857143 C2.0025641,27.0857143 0.846153846,25.9142857 0.846153846,24.4571429 L0.846153846,3.51428571 C0.846153846,2.05714286 2.0025641,0.885714286 3.44102564,0.885714286 L29.3051282,0.885714286 C30.7435897,0.885714286 31.9,2.05714286 31.9,3.51428571 L31.9,24.4571429 C31.8717949,25.9142857 30.7153846,27.0857143 29.2769231,27.0857143 Z" id="Path" fill="#FFFFFF"></path>
                    <path d="M9.50512821,27.2857143 C9.02564103,27.2857143 8.65897436,26.9142857 8.65897436,26.4285714 L8.65897436,11.0857143 C8.65897436,10.6 9.02564103,10.2285714 9.50512821,10.2285714 C9.98461538,10.2285714 10.3512821,10.6 10.3512821,11.0857143 L10.3512821,26.4571429 C10.3512821,26.9142857 9.98461538,27.2857143 9.50512821,27.2857143 Z" id="Path" fill="#38C2E8"></path>
                    <g id="Group" transform="translate(0.846154, 0.857143)">
                        <path d="M31.025641,5.28571429 L0,5.28571429 L0,2.65714286 C0,1.2 1.15641026,0.0285714286 2.59487179,0.0285714286 L28.4589744,0.0285714286 C29.8974359,0.0285714286 31.0538462,1.2 31.0538462,2.65714286 L31.025641,5.28571429 Z" id="Path" fill="#38C2E8"></path>
                        <g transform="translate(12.692308, 9.142857)" id="Path">
                            <path d="M1.07179487,0.0857142857 L13.5948718,0.0857142857 C14.074359,0.0857142857 14.4410256,0.457142857 14.4410256,0.942857143 L14.4410256,4.45714286 C14.4410256,4.94285714 14.074359,5.31428571 13.5948718,5.31428571 L1.07179487,5.31428571 C0.592307692,5.31428571 0.225641026,4.94285714 0.225641026,4.45714286 L0.225641026,0.942857143 C0.225641026,0.457142857 0.592307692,0.0857142857 1.07179487,0.0857142857 Z" fill="#38C2E8"></path>
                            <path d="M1.07179487,7.94285714 L4.54102564,7.94285714 C5.02051282,7.94285714 5.38717949,8.31428571 5.38717949,8.8 L5.38717949,12.3142857 C5.38717949,12.8 5.02051282,13.1714286 4.54102564,13.1714286 L1.07179487,13.1714286 C0.592307692,13.1714286 0.225641026,12.8 0.225641026,12.3142857 L0.225641026,8.8 C0.225641026,8.31428571 0.592307692,7.94285714 1.07179487,7.94285714 Z" fill="#FF671D"></path>
                        </g>
                    </g>
                    <path d="M29.3051282,0.0285714286 L3.44102564,0.0285714286 C1.55128205,0.0285714286 2.84217094e-14,1.6 2.84217094e-14,3.51428571 L2.84217094e-14,24.4571429 C2.84217094e-14,26.3714286 1.55128205,27.9428571 3.44102564,27.9428571 L29.2769231,27.9428571 C31.1666667,27.9428571 32.7179487,26.4 32.7461538,24.4571429 L32.7461538,3.51428571 C32.7461538,1.6 31.1948718,0.0285714286 29.3051282,0.0285714286 Z M1.69230769,3.54285714 C1.69230769,2.57142857 2.48205128,1.77142857 3.44102564,1.77142857 L3.44102564,1.74285714 L29.2769231,1.74285714 C30.2358974,1.74285714 31.025641,2.54285714 31.025641,3.51428571 L31.025641,5.28571429 L1.69230769,5.28571429 L1.69230769,3.54285714 Z M29.3051282,26.2571429 L3.44102564,26.2571429 C2.48205128,26.2571429 1.69230769,25.4571429 1.69230769,24.4857143 L1.69230769,7 L31.0538462,7 L31.0538462,24.4857143 C31.0538462,25.4571429 30.2641026,26.2571429 29.3051282,26.2571429 Z" id="Shape" fill="#FFA400" fill-rule="nonzero"></path>
                    <path d="M4.08974359,4.51428571 C3.55384615,4.51428571 3.1025641,4.05714286 3.1025641,3.51428571 C3.1025641,2.97142857 3.55384615,2.51428571 4.08974359,2.51428571 C4.62564103,2.51428571 5.07692308,2.97142857 5.07692308,3.51428571 C5.04871795,4.05714286 4.62564103,4.51428571 4.08974359,4.51428571 Z" id="Path" fill="#FFFFFF"></path>
                    <path d="M6.65641026,4.51428571 C6.12051282,4.51428571 5.66923077,4.05714286 5.66923077,3.51428571 C5.66923077,2.97142857 6.12051282,2.51428571 6.65641026,2.51428571 C7.19230769,2.51428571 7.64358974,2.97142857 7.64358974,3.51428571 C7.64358974,4.05714286 7.19230769,4.51428571 6.65641026,4.51428571 Z" id="Path" fill="#FFFFFF"></path>
                    <path d="M9.25128205,4.51428571 C8.71538462,4.51428571 8.26410256,4.05714286 8.26410256,3.51428571 C8.26410256,2.97142857 8.71538462,2.51428571 9.25128205,2.51428571 C9.78717949,2.51428571 10.2384615,2.97142857 10.2384615,3.51428571 C10.2102564,4.05714286 9.78717949,4.51428571 9.25128205,4.51428571 Z" id="Path" fill="#FFFFFF"></path>
                    <g id="Group" transform="translate(20.589744, 17.714286)" fill="#38C2E8">
                        <path d="M6.26153846,1.85714286 L1.1,1.85714286 C0.620512821,1.85714286 0.253846154,1.48571429 0.253846154,1 C0.253846154,0.514285714 0.620512821,0.142857143 1.1,0.142857143 L6.26153846,0.142857143 C6.74102564,0.142857143 7.10769231,0.514285714 7.10769231,1 C7.10769231,1.48571429 6.74102564,1.85714286 6.26153846,1.85714286 Z" id="Path"></path>
                        <path d="M6.26153846,5.51428571 L1.1,5.51428571 C0.620512821,5.51428571 0.253846154,5.14285714 0.253846154,4.65714286 C0.253846154,4.17142857 0.620512821,3.8 1.1,3.8 L6.26153846,3.8 C6.74102564,3.8 7.10769231,4.17142857 7.10769231,4.65714286 C7.10769231,5.14285714 6.74102564,5.51428571 6.26153846,5.51428571 Z" id="Path"></path>
                    </g>
                </g>
            </g>
        </g>
    </g>
</svg>