<?xml version="1.0" encoding="UTF-8"?>
<svg width="54px" height="55px" viewBox="0 0 54 55" version="1.1" xmlns="http://www.w3.org/2000/svg" xmlns:xlink="http://www.w3.org/1999/xlink">
    <!-- Generator: Sketch 52.2 (67145) - http://www.bohemiancoding.com/sketch -->
    <title>Youtube</title>
    <desc>Created with Sketch.</desc>
    <g id="Page-1" stroke="none" stroke-width="1" fill="none" fill-rule="evenodd">
        <g id="Desktop-HD" transform="translate(-1139.000000, -362.000000)">
            <g id="social-icons" transform="translate(954.000000, 362.000000)">
                <g id="Youtube" transform="translate(185.000000, 0.000000)">
                    <path d="M37.5692188,0.716564322 L15.9430393,0.716564322 C7.14157915,0.725339463 0.00877514124,7.85814347 -7.10542736e-15,16.6596036 L-7.10542736e-15,38.2897629 C0.00877514124,47.091223 7.14157915,54.224027 15.9430393,54.2328022 L37.5692188,54.2328022 C46.3706789,54.224027 53.5034829,47.091223 53.5122581,38.2897629 L53.5122581,16.6596036 C53.5034829,7.85814347 46.3706789,0.725339463 37.5692188,0.716564322 Z" id="Path" fill="#655DC6"></path>
                    <path d="M40.6893743,39.2687913 C31.8514277,41.0079115 22.7592524,41.0079115 13.9213059,39.2687913 C12.6000155,39.0061251 11.2946444,37.7445317 11.0876953,36.4829382 C10.1246495,30.5387412 10.1246495,24.4782817 11.0876953,18.5340847 C11.2946444,17.2844306 12.6000155,16.0228372 13.9213059,15.7482316 C22.7592524,14.0091115 31.8514277,14.0091115 40.6893743,15.7482316 C42.0106646,16.0108978 43.3160358,17.2724913 43.5229848,18.5340847 C44.4900606,24.4779567 44.4900606,30.5390662 43.5229848,36.4829382 C43.3160358,37.7445317 42.0106646,39.0061251 40.6893743,39.2687913 Z" id="Path" fill="#FFA400"></path>
                    <path d="M22.6848037,32.7419355 L22.6848037,22.3148853 C22.6826496,21.9451946 22.8824808,21.6038159 23.2058885,21.4246978 C23.5292963,21.2455797 23.924688,21.2572964 24.2369219,21.4552507 L32.4790672,26.664796 C32.7751274,26.8484313 32.9552226,27.1720638 32.9552226,27.5204508 C32.9552226,27.8688379 32.7751274,28.1924704 32.4790672,28.3761057 L24.2369219,33.585651 C23.9270947,33.7820959 23.5351559,33.7952642 23.2128421,33.6200577 C22.8905283,33.4448512 22.6884359,33.1087737 22.6848037,32.7419355 Z" id="Path" fill="#655DC6"></path>
                </g>
            </g>
        </g>
    </g>
</svg>